<svg xmlns="http://www.w3.org/2000/svg" xmlns:xlink="http://www.w3.org/1999/xlink" width="18" height="21" viewBox="0 0 18 21"><defs><path id="dqpua" d="M856.56 10816h-12.12c-.8 0-1.44-.63-1.44-1.41v-1.7c0-1.92 1.68-3.52 3.6-3.88v.03l1.38 4.28s.18.84.93.84c.73 0 .65-.84.65-.84v-3.53h.01a.93.93 0 0 1 .93-.78c.47 0 .86.34.93.78v3.53s-.05.84.73.84c.7 0 .8-.77.8-.77l1.44-4.36v-.02c1.92.36 3.6 1.96 3.6 3.88v1.7c0 .78-.65 1.4-1.44 1.4zm-9.96-6.99zm3.94-1.62c-2.41 0-4.37-2.76-4.37-5.12a4.32 4.32 0 0 1 4.37-4.27 4.32 4.32 0 0 1 4.36 4.27c0 2.36-1.95 5.12-4.36 5.12z"/></defs><g><g transform="translate(-841 -10796)"><use fill="#c8c8c8" xlink:href="#dqpua"/></g></g></svg>