<svg xmlns="http://www.w3.org/2000/svg" xmlns:xlink="http://www.w3.org/1999/xlink" width="20" height="20" viewBox="0 0 20 20"><defs><path id="ae98a" d="M845 2666.42s-.04-.92.55-2.11c.41-.84 2.01-1.3 2.01-1.3s.69-.18 2.07 1.15c.58.56.93 1.29.98 1.93.05.68-1.4 2.12-1.4 2.12s.11 1.21 1 2.25c.57.66 1.55 1.69 2.06 2.17.44.41.93.95 1.58 1.38 1.28.85 1.59.77 1.59.77s1.82-1.53 2.37-1.47c.42.04 1 .31 1.76.95.56.48.91.84 1.2 1.32.17.3.23.53.23.53s.07.76-1.1 1.97c-1.18 1.2-2.8.88-2.8.88s-.93-.14-2.45-.85a16.75 16.75 0 0 1-4.54-3.25 28.52 28.52 0 0 1-3.64-4.58c-.99-1.71-1.47-3.86-1.47-3.86z"/></defs><g><g transform="translate(-843 -2661)"><use fill="#c8c8c8" xlink:href="#ae98a"/></g></g></svg>