<svg xmlns="http://www.w3.org/2000/svg" xmlns:xlink="http://www.w3.org/1999/xlink" width="22" height="22" viewBox="0 0 22 22"><defs><path id="mqnha" d="M712.62 12689.6s-.04-1.09.65-2.49c.48-.99 2.37-1.54 2.37-1.54s.81-.2 2.43 1.36c.7.67 1.1 1.52 1.16 2.28.06.8-1.64 2.5-1.64 2.5s.12 1.42 1.17 2.65c.67.77 1.82 1.98 2.42 2.55.52.49 1.1 1.12 1.87 1.63 1.5 1 1.87.9 1.87.9s2.15-1.8 2.8-1.73c.48.05 1.18.37 2.06 1.13.66.56 1.08.98 1.41 1.54.2.36.28.63.28.63s.08.9-1.3 2.31c-1.39 1.42-3.3 1.05-3.3 1.05s-1.09-.17-2.88-1a19.75 19.75 0 0 1-5.35-3.84 33.58 33.58 0 0 1-4.28-5.39c-1.17-2-1.74-4.54-1.74-4.54z"/></defs><g><g transform="translate(-711 -12684)"><use xlink:href="#mqnha"/></g></g></svg>