<svg version="1.1" id="Слой_1" 
    width="81" height="77" xmlns="http://www.w3.org/2000/svg" xmlns:xlink="http://www.w3.org/1999/xlink" x="0px" y="0px"
            viewBox="0 0 439.722 425.162" enable-background="new 0 0 439.722 425.162"
        xml:space="preserve">
    <path fill="#0e2d3b" d="M161.262,59.364l-16.524-45.9c-6.12,2.448-12.24,4.896-18.36,7.344l20.808,44.064
        C151.47,63.036,156.366,61.2,161.262,59.364z"/>
    <path fill="#0e2d3b" d="M11.934,294.984c2.448,6.12,4.896,12.24,7.344,18.36l44.064-20.808c-2.448-4.896-4.284-9.18-6.12-14.076
        L11.934,294.984z"/>
    <path fill="#0e2d3b" d="M98.226,99.144c1.836-1.836,3.672-3.672,5.508-5.508L70.686,57.528c-2.448,2.448-4.896,4.284-7.344,6.732
        c-2.448,2.448-4.896,4.896-6.732,7.344l36.108,33.048C94.554,102.816,96.39,100.98,98.226,99.144z"/>
    <path fill="#0e2d3b" d="M48.042,220.32c0-2.448,0-4.896,0-7.956l-48.96-2.448c0,3.06,0,6.732,0,9.792s0,6.732,0,9.792l48.96-2.448
        C48.042,225.216,48.042,222.768,48.042,220.32z"/>
    <path fill="#0e2d3b" d="M11.934,145.044l45.9,16.524c1.836-4.896,3.672-9.792,6.12-14.076L19.89,126.684
        C16.83,132.804,14.382,138.924,11.934,145.044z"/>
    <path fill="#0e2d3b" d="M380.358,161.568l45.9-16.524c-2.448-6.12-4.896-12.24-7.956-18.36l-44.064,20.808
        C376.686,151.776,378.522,156.672,380.358,161.568z"/>
    <path fill="#0e2d3b" d="M374.85,292.536l44.676,20.808c3.06-6.12,5.508-12.24,7.344-18.36l-45.9-16.524
        C379.134,282.744,377.298,287.64,374.85,292.536z"/>
    <path fill="#0e2d3b" d="M390.762,220.32c0,2.448,0,4.896,0,7.344l48.96,1.836c0-3.06,0-6.12,0-9.18c0-3.672,0-7.344,0-10.404
        l-48.96,2.448C390.762,214.812,390.762,217.872,390.762,220.32z"/>
    <path fill="#0e2d3b" d="M345.474,104.652l36.108-33.048c-2.448-2.448-4.284-4.896-6.732-6.732c-2.448-2.448-4.896-4.896-7.344-7.344
        l-33.048,36.108c1.836,1.836,3.672,3.672,6.12,5.508C342.414,100.98,344.25,102.816,345.474,104.652z"/>
    <path fill="#0e2d3b" d="M226.746,48.96L228.582,0c-6.732,0-13.464,0-20.196,0l2.448,48.96C216.954,48.96,221.85,48.96,226.746,48.96
        z"/>
    <path fill="#0e2d3b" d="M312.426,20.808c-6.12-3.06-12.24-5.508-18.36-7.344l-16.524,45.9c4.896,1.836,9.792,3.672,14.076,6.12
        L312.426,20.808z"/>
    <path fill="#0e2d3b" d="M251.226,236.844c2.448-4.896,4.284-10.404,4.284-16.524c0-19.584-15.912-36.108-36.108-36.108
        s-36.108,15.912-36.108,36.108s15.912,36.108,36.108,36.108c6.12,0,11.628-1.224,16.524-4.284l111.996,104.04
        c-34.884,33.048-80.172,50.796-127.908,50.796c-49.572,0-96.696-19.584-132.192-54.468L74.97,365.364
        c38.556,38.556,89.964,59.976,145.044,59.976c53.244,0,103.428-20.196,141.372-56.916l29.376,26.928
        c0.612,0.612,1.224,0.612,1.836,0.612c0.612,0,1.836,0,2.448-0.612c1.224-1.224,1.224-3.06,0-4.284L251.226,236.844z M219.402,244.8
        c-13.464,0-24.48-11.016-24.48-24.48s11.016-24.48,24.48-24.48s24.48,11.016,24.48,24.48S232.866,244.8,219.402,244.8z"/>
</svg>