<?xml version="1.0" encoding="utf-8"?>
<!-- Generator: Adobe Illustrator 17.0.0, SVG Export Plug-In . SVG Version: 6.00 Build 0)  -->
<!DOCTYPE svg PUBLIC "-//W3C//DTD SVG 1.1//EN" "http://www.w3.org/Graphics/SVG/1.1/DTD/svg11.dtd">
<svg version="1.1" id="Слой_1" xmlns="http://www.w3.org/2000/svg" xmlns:xlink="http://www.w3.org/1999/xlink" x="0px" y="0px"
	 width="72" height="96" viewBox="86.904 26.964 438.192 585.072"
	 enable-background="new 86.904 26.964 438.192 585.072" xml:space="preserve">
<g>
	<path fill="#0E2D3B" d="M195.84,334.8l23.256,39.78l44.676,9.792L306,402.732l41.616-18.36l45.288-9.792l23.256-39.168l30.6-34.272
		l-4.284-45.288l4.896-45.9l-30.6-34.272l-23.256-39.78l-44.676-9.792l-42.228-18.36l-41.616,18.36l-45.288,9.792l-23.256,39.168
		l-30.6,34.272l4.284,45.288l-4.896,45.9L195.84,334.8z M184.824,214.848l26.316-29.376l20.808-34.884l38.556-8.568l37.332-15.912
		l36.108,15.912l39.168,9.18l19.584,33.66l26.928,30.6l-4.284,39.78l3.06,39.78l-26.316,29.376l-20.808,34.884l-38.556,8.568
		l-37.332,15.912l-36.108-15.912l-39.168-9.18l-19.584-33.66l-26.928-30.6l4.284-39.78L184.824,214.848z"/>
	<path fill="#0E2D3B" d="M463.284,394.164l8.568-16.524l51.408-52.02l-10.404-68.544l10.404-72.216L474.3,135.9l-33.66-65.484
		L372.096,59.4l-65.484-32.436L244.8,58.788l-72.216,12.24L140.76,132.84l-50.796,52.02l10.404,68.544L89.964,325.62l48.96,48.96
		l9.792,18.972l-61.812,149.94l91.8,12.24l73.44,56.304L306,482.292h0.612l53.244,129.132l73.44-56.304l91.8-12.24L463.284,394.164z
		 M109.548,318.888l8.568-56.916l31.824,0.612l0.612-18.36l-31.824-0.612l-9.18-52.632l39.78-41.004l23.868,18.36l11.016-14.688
		l-23.868-18.36l24.48-47.736l56.304-9.792l9.18,29.988l17.748-5.508l-9.18-30.6l47.736-24.48l50.796,25.092l-11.628,29.376
		l17.136,6.732l11.628-29.988l53.244,8.568l26.316,50.796L428.4,156.708l10.404,15.3l27.54-18.972l37.944,37.944l-8.568,56.304
		l-30.6-1.224l-0.612,18.36l31.212,1.224l8.568,53.244l-41.004,41.616l-24.48-18.972l-11.628,14.688l25.092,19.584L428.4,422.928
		l-56.304,9.792l-9.18-30.6l-17.748,5.508l9.18,30.6l-47.736,24.48l-52.02-25.704l10.404-30.6l-17.136-6.12l-11.016,31.212
		l-52.02-8.568l-26.316-50.796l25.704-17.748l-10.404-15.3l-26.316,18.36L109.548,318.888z M244.188,582.66l-50.796-38.556
		l17.748-37.332l-16.524-7.956l-18.36,37.944l-64.26-8.568l47.124-113.22l12.852,24.48l59.976,9.792l15.912,5.508v-0.612
		l41.004,20.196L244.188,582.66z M323.136,474.336l45.9-23.256l72.216-12.24l12.24-23.256l46.512,112.608l-63.036,8.568
		l-17.748-36.72l-16.524,7.956l17.136,35.496l-52.02,39.168L323.136,474.336z"/>
	<path fill="#0E2D3B" d="M248.472,331.74l58.14-26.928l58.752,26.928l-7.344-63.648l43.452-47.124l-63.036-12.852l-31.824-55.692
		l-31.824,55.692l-63.036,12.852l43.452,47.124L248.472,331.74z M247.248,231.984l39.168-7.956L306,189.144l19.584,34.884
		l39.168,7.956l-26.928,29.376l4.284,39.78l-36.72-16.524l-36.72,16.524l4.284-39.78L247.248,231.984z"/>
</g>
</svg>
