<?xml version="1.0" encoding="utf-8"?>
<!-- Generator: Adobe Illustrator 17.0.0, SVG Export Plug-In . SVG Version: 6.00 Build 0)  -->
<!DOCTYPE svg PUBLIC "-//W3C//DTD SVG 1.1//EN" "http://www.w3.org/Graphics/SVG/1.1/DTD/svg11.dtd">
<svg version="1.1" id="Слой_1" xmlns="http://www.w3.org/2000/svg" xmlns:xlink="http://www.w3.org/1999/xlink" x="0px" y="0px"
	 width="63" height="91" viewBox="143.438 80.438 325.125 478.125"
	 enable-background="new 143.438 80.438 325.125 478.125" xml:space="preserve">
<g>
	<g>
		<path fill="#0E2D3B" d="M459,80.438H153c-5.738,0-9.563,3.825-9.563,9.563v459c0,5.737,3.825,9.563,9.563,9.563h306
			c5.737,0,9.563-3.825,9.563-9.563V90C468.563,84.263,464.737,80.438,459,80.438z M454.219,544.219H157.781V94.781h296.438V544.219
			z"/>
		<path fill="#0E2D3B" d="M210.375,172.238h191.25c5.737,0,9.563-3.825,9.563-7.65s-3.825-7.65-9.563-7.65h-191.25
			c-5.738,0-9.563,3.825-9.563,7.65C200.813,168.413,204.637,172.238,210.375,172.238z"/>
		<path fill="#0E2D3B" d="M210.375,234.394H382.5c5.737,0,9.563-3.825,9.563-7.65s-3.825-7.65-9.563-7.65H210.375
			c-5.738,0-9.563,3.825-9.563,7.65C200.813,231.525,204.637,234.394,210.375,234.394z"/>
		<path fill="#0E2D3B" d="M210.375,296.55H382.5c5.737,0,9.563-3.825,9.563-7.65c0-3.825-3.825-7.65-9.563-7.65H210.375
			c-5.738,0-9.563,3.825-9.563,7.65C200.813,293.681,204.637,296.55,210.375,296.55z"/>
		<path fill="#0E2D3B" d="M354.769,403.65c-4.781-0.956-9.563,0-14.344,0.956c-1.913,0-4.781,0.956-6.694,0.956h-0.956
			c-4.781,0-8.606,3.825-9.563,8.606c0,1.913,0,3.825-0.956,5.737c0,3.825,0,4.781-1.913,6.694
			c-6.694,7.65-28.688,11.475-41.119,13.388h-1.913c0.956-6.694,0.956-11.475,0.956-11.475c0-4.781-3.825-8.606-7.65-9.563
			c-4.781-0.956-8.606,1.913-10.519,6.694c-0.956,2.869-0.956,6.694-1.913,11.475c0-7.65,0-15.3,0.956-20.081
			c0-7.65,0.956-12.431,0-15.3c0-3.825-3.825-7.65-7.65-8.606c-3.825-0.956-8.606,0.956-10.519,4.781l-0.956,1.913
			c-3.825,8.606-15.3,30.6-24.863,30.6c-5.738,0-9.563,3.825-9.563,9.563s3.825,9.563,9.563,9.563
			c9.563,0,17.212-4.781,23.906-12.431c0,2.869,0,6.694,0,9.563c-0.956,0.956-1.913,1.913-2.869,2.869
			c-5.738,7.65-1.913,21.038,1.913,27.731c3.825,5.737,8.606,8.606,14.344,8.606c0.956,0,1.913,0,2.869,0
			c9.563-1.913,15.3-12.431,19.125-23.906c0.956,0,1.913,0,2.869,0l5.738-0.956c16.256-2.869,42.075-5.737,52.594-20.081
			c3.825-4.781,5.737-9.563,5.737-13.388h0.956c2.869-0.956,5.737-0.956,8.606-0.956c5.737,0.956,10.519-2.869,10.519-7.65
			C364.331,408.431,360.506,403.65,354.769,403.65z"/>
	</g>
</g>
</svg>
