<?xml version="1.0" encoding="utf-8"?>
<!-- Generator: Adobe Illustrator 17.0.0, SVG Export Plug-In . SVG Version: 6.00 Build 0)  -->
<!DOCTYPE svg PUBLIC "-//W3C//DTD SVG 1.1//EN" "http://www.w3.org/Graphics/SVG/1.1/DTD/svg11.dtd">
<svg version="1.1" id="Слой_1" xmlns="http://www.w3.org/2000/svg" xmlns:xlink="http://www.w3.org/1999/xlink" x="0px" y="0px"
	 width="79" height="78" viewBox="47.124 60.624 517.752 517.752"
	 enable-background="new 47.124 60.624 517.752 517.752" xml:space="preserve">
<title>01</title>
<g>
	<path fill="#0E2D3B" d="M564.876,269.928c0-115.668-93.636-209.304-209.304-209.304c-6.732,0-12.24,5.508-12.24,12.24v197.064
		c0,6.732,5.508,12.24,12.24,12.24h197.064C559.368,282.168,564.876,276.66,564.876,269.928z M360.468,265.032V78.372
		c100.368,6.732,179.928,86.292,186.66,186.66H360.468z"/>
	<path fill="#0E2D3B" d="M289.476,93.672c-134.028,0-242.352,108.324-242.352,242.352s108.324,242.352,242.352,242.352
		s242.352-108.324,242.352-242.352c0-6.732-5.508-12.24-12.24-12.24H301.716V105.912C301.716,99.18,296.208,93.672,289.476,93.672z
		 M518.364,346.428c-7.344,125.46-114.444,220.932-239.292,214.2c-125.46-7.344-220.932-114.444-214.2-239.292
		c6.732-115.056,98.532-207.468,213.588-213.588v226.44c0,7.344,5.508,12.852,12.852,12.852L518.364,346.428z"/>
</g>
</svg>
