<?xml version="1.0" encoding="utf-8"?>
<!-- Generator: Adobe Illustrator 17.0.0, SVG Export Plug-In . SVG Version: 6.00 Build 0)  -->
<!DOCTYPE svg PUBLIC "-//W3C//DTD SVG 1.1//EN" "http://www.w3.org/Graphics/SVG/1.1/DTD/svg11.dtd">
<svg version="1.1" id="Слой_1" xmlns="http://www.w3.org/2000/svg" xmlns:xlink="http://www.w3.org/1999/xlink" x="0px" y="0px"
	 width="72" height="57" viewBox="39.78 110.196 532.44 418.608"
	 enable-background="new 39.78 110.196 532.44 418.608" xml:space="preserve">
<title>10</title>
<g>
	<path fill="#0E2D3B" d="M572.22,252.18c0-33.66-27.54-61.2-61.2-61.2h-86.292L397.8,118.152c-1.836-4.896-6.12-7.956-11.628-7.956
		H225.828c-4.896,0-9.792,3.06-11.628,7.956l-26.928,72.828H100.98c-33.66,0-61.2,27.54-61.2,61.2v215.424
		c0,33.66,27.54,61.2,61.2,61.2h410.04c33.66,0,61.2-27.54,61.2-61.2V252.18z M547.74,468.216c0,20.196-16.524,36.72-36.72,36.72
		H100.98c-20.196,0-36.72-16.524-36.72-36.72V252.18c0-20.196,16.524-36.72,36.72-36.72h94.86c3.672,0,7.344-1.836,9.792-4.896
		l0.612-0.612c0-0.612,0.612-0.612,0.612-1.224c0.612-0.612,0.612-1.224,1.224-1.836l26.928-72.216h143.208l26.316,70.992
		c1.224,5.508,6.12,9.18,11.628,9.18h94.86c20.196,0,36.72,16.524,36.72,36.72V468.216z"/>
	<path fill="#0E2D3B" d="M493.884,258.912h-32.436c-6.732,0-12.24,5.508-12.24,12.24s5.508,12.24,12.24,12.24h32.436
		c6.732,0,12.24-5.508,12.24-12.24S500.616,258.912,493.884,258.912L493.884,258.912z"/>
	<path fill="#0E2D3B" d="M306,232.596c-63.648,0-115.056,51.408-115.056,115.056S242.352,462.708,306,462.708
		S421.056,411.3,421.056,347.652l0,0C421.056,284.004,369.648,232.596,306,232.596z M306,437.616
		c-50.184,0-90.576-40.392-90.576-90.576s40.392-89.964,90.576-89.964s90.576,40.392,90.576,90.576l0,0
		C396.576,397.224,356.184,438.228,306,437.616L306,437.616z"/>
</g>
</svg>
