<svg xmlns="http://www.w3.org/2000/svg" xmlns:xlink="http://www.w3.org/1999/xlink" width="46" height="46" viewBox="0 0 46 46"><defs><path id="lz7la" d="M1077.09 11151a3 3 0 0 1 3-3h37.09a3 3 0 0 1 3 3v37a3 3 0 0 1-3 3h-37.09a3 3 0 0 1-3-3z"/><path id="lz7lb" d="M1106.87 11176.73h-.2c-1.33-.21-2.16-1.12-2.94-1.96-.44-.47-1.16-1.69-1.95-1.56-1.14.18-.5 2.12-.98 2.93-.38.65-2.02.5-3.14.4-3.54-.37-5.46-2.14-7.05-4.11-1.7-2.1-2.92-4.41-4.11-6.84-.4-.8-.98-1.58-.98-2.55.58-.45 1.6-.39 2.55-.39.8 0 1.96-.09 2.54.2.35.17.7 1.18.98 1.76a21.12 21.12 0 0 0 1.96 3.32c.34.47.96 1.3 1.57 1.17.6-.11.56-1.43.58-2.34.04-1.03.12-2.38-.2-2.93-.28-.52-.83-.48-1.36-.79.44-.86 1.66-.97 3.13-.97 1.23 0 2.84-.2 3.33.58.48.81.23 2.44.2 3.52-.04 1.22-.28 2.37.58 2.93.67-.07 1-.68 1.38-1.17.85-1.07 1.5-1.94 2.15-3.32.27-.58.5-1.58.98-1.76.74-.27 1.85-.2 2.94-.2.9 0 2.45-.2 2.74.4.23.47-.37 1.8-.59 2.14-.83 1.3-1.66 2.2-2.54 3.33-.36.45-1.03 1.04-.98 1.76.03.55.53.97.98 1.37.95.86 1.57 1.58 2.35 2.54.29.36 1.04 1.1.97 1.56-.18 1.45-4.89.96-4.9.98z"/></defs><g><g transform="translate(-1076 -11146)"><use fill="#2f76a5" xlink:href="#lz7la"/></g><g transform="translate(-1076 -11146)"><use fill="#fff" xlink:href="#lz7lb"/></g></g></svg>