<svg xmlns="http://www.w3.org/2000/svg" xmlns:xlink="http://www.w3.org/1999/xlink" width="46" height="46" viewBox="0 0 46 46"><defs><path id="4xjua" d="M1199.94 11151a3 3 0 0 1 3-3H1240a3 3 0 0 1 3 3v37a3 3 0 0 1-3 3h-37.06a3 3 0 0 1-3-3z"/><path id="4xjub" d="M1226.75 11173.4c-1.26.88-2.99 1.05-4.12 1.18l.98 1.17 3.33 3.71c.53.58.73 1.58.2 2.15l-.2.2c-.53.57-1.49.47-1.96 0-.92-.93-2.2-2.47-3.52-3.91l-3.53 3.9c-.46.47-1.23.58-1.76 0l-.2-.19a1.65 1.65 0 0 1 0-2.15c.89-.96 2-2.28 3.33-3.71l.98-1.17c-1.12-.13-2.84-.3-4.11-1.18-1.48-1.04-2.15-1.66-1.57-2.93.34-.73 1.32-1.25 2.55-.2 1.66 1.43 4.3 1.38 4.3 1.38s2.65.05 4.32-1.37c1.23-1.06 2.2-.54 2.54.2.59 1.26-.08 1.88-1.56 2.92zm-5.3-3.71a6.33 6.33 0 0 1-6.26-6.45 6.33 6.33 0 0 1 6.27-6.45 6.5 6.5 0 0 1 6.46 6.45 6.5 6.5 0 0 1-6.46 6.45zm0-9.97c-1.88 0-3.32 1.63-3.32 3.52 0 1.9 1.44 3.32 3.33 3.32 1.89 0 3.52-1.43 3.52-3.32a3.6 3.6 0 0 0-3.52-3.52z"/></defs><g><g transform="translate(-1198 -11146)"><use fill="#ff8515" xlink:href="#4xjua"/></g><g transform="translate(-1198 -11146)"><use fill="#fff" xlink:href="#4xjub"/></g></g></svg>