<svg xmlns="http://www.w3.org/2000/svg" xmlns:xlink="http://www.w3.org/1999/xlink" width="47" height="46" viewBox="0 0 47 46"><defs><path id="43w1a" d="M1016 11151a3 3 0 0 1 3-3h37.06a3 3 0 0 1 3 3v37a3 3 0 0 1-3 3H1019a3 3 0 0 1-3-3z"/><path id="43w1b" d="M1032.05 11165.59h2.35v-2.35c0-1.04.06-2.7.79-3.71a3.9 3.9 0 0 1 3.52-1.76c2.96 0 4.31.39 4.31.39l-.59 3.71s-1.04-.39-1.95-.39c-.92 0-1.77.22-1.77 1.17V11165.6h3.92v3.51h-3.92v12.32h-4.3v-12.32h-2.36z"/></defs><g><g transform="translate(-1014 -11146)"><use fill="#235b9e" xlink:href="#43w1a"/></g><g transform="translate(-1014 -11146)"><use fill="#fff" xlink:href="#43w1b"/></g></g></svg>