<svg xmlns="http://www.w3.org/2000/svg" xmlns:xlink="http://www.w3.org/1999/xlink" width="46" height="46" viewBox="0 0 46 46"><defs><path id="dv2fa" d="M1139.19 11151a3 3 0 0 1 3-3h37.09a3 3 0 0 1 3 3v37a3 3 0 0 1-3 3h-37.09a3 3 0 0 1-3-3z"/><path id="dv2fc" d="M1166.6 11183.37h-11.75a7.83 7.83 0 0 1-7.83-7.82v-12.11c0-4.32 3.5-7.82 7.83-7.82h11.75c4.33 0 7.84 3.5 7.84 7.82v12.11c0 4.32-3.51 7.82-7.84 7.82zm5.29-20.52a4.9 4.9 0 0 0-4.9-4.89h-12.73a4.9 4.9 0 0 0-4.9 4.89v12.7a4.9 4.9 0 0 0 4.9 4.9H1167a4.9 4.9 0 0 0 4.9-4.9zm-3.92.78a1.76 1.76 0 1 1 0-3.52 1.76 1.76 0 0 1 0 3.52zm-7.34 12.9a7.14 7.14 0 1 1-.02-14.28 7.14 7.14 0 0 1 .02 14.28zm0-11.73a4.6 4.6 0 1 0-.01 9.2 4.6 4.6 0 0 0 0-9.2z"/><linearGradient id="dv2fb" x1="1139.19" x2="1182.19" y1="11190" y2="11149" gradientUnits="userSpaceOnUse"><stop offset="0" stop-color="#ffb51b"/><stop offset=".07" stop-color="#ffb51b"/><stop offset=".46" stop-color="#db000e"/><stop offset=".47" stop-color="#db000e"/><stop offset="1" stop-color="#b40797"/></linearGradient></defs><g><g transform="translate(-1138 -11146)"><use fill="#a9654d" xlink:href="#dv2fa"/><use fill="url(#dv2fb)" xlink:href="#dv2fa"/></g><g transform="translate(-1138 -11146)"><use fill="#fff" xlink:href="#dv2fc"/></g></g></svg>